<svg width="36" height="36" viewBox="0 0 36 36" fill="none" xmlns="http://www.w3.org/2000/svg">
<path d="M0 11.0341C0 4.94016 4.94015 0 11.0341 0H24.2751C30.3691 0 35.3092 4.94015 35.3092 11.0341V24.2751C35.3092 30.3691 30.3691 35.3092 24.2751 35.3092H11.0341C4.94016 35.3092 0 30.3691 0 24.2751V11.0341Z" fill="#E0E7FF"/>
<path d="M22.8044 24.2751L17.6551 21.3326L12.5059 24.2751V12.5053C12.5059 12.1151 12.6609 11.7409 12.9368 11.465C13.2127 11.1891 13.5869 11.0341 13.9771 11.0341H21.3332C21.7234 11.0341 22.0976 11.1891 22.3735 11.465C22.6494 11.7409 22.8044 12.1151 22.8044 12.5053V24.2751Z" stroke="#4F39F6" stroke-width="1.47122" stroke-linecap="round" stroke-linejoin="round"/>
</svg>
