<svg width="1000" height="147" viewBox="0 0 1000 147" fill="none" xmlns="http://www.w3.org/2000/svg">
<path d="M1000 82.626V142.923H972.586V80.459C972.586 74.9318 971.644 70.4723 969.76 67.0806C967.31 62.3071 962.663 59.9203 955.817 59.9203C948.72 59.9203 943.319 62.3071 939.614 67.0806C935.971 71.7913 934.15 78.5433 934.15 87.3367V142.923H907.395V4.52222H934.15V53.6079C938.044 47.641 942.534 43.4956 947.621 41.1716C952.771 38.7849 958.172 37.5915 963.825 37.5915C970.168 37.5915 975.915 38.6906 981.065 40.889C986.277 43.0873 990.548 46.4476 993.877 50.9699C996.703 54.8013 998.43 58.7583 999.058 62.8409C999.686 66.8607 1000 73.4558 1000 82.626Z" fill="black"/>
<path d="M870.56 44.9404C878.599 50.0908 883.216 58.947 884.409 71.5089H857.56C857.183 68.0544 856.21 65.3222 854.64 63.3123C851.688 59.6693 846.663 57.8478 839.567 57.8478C833.726 57.8478 829.549 58.7586 827.037 60.58C824.588 62.4015 823.363 64.537 823.363 66.9866C823.363 70.0643 824.682 72.294 827.32 73.6758C829.958 75.1205 839.284 77.6014 855.299 81.1188C865.976 83.6312 873.983 87.4311 879.322 92.5187C884.597 97.6691 887.235 104.107 887.235 111.833C887.235 122.008 883.435 130.33 875.836 136.799C868.3 143.206 856.618 146.409 840.791 146.409C824.651 146.409 812.718 143.018 804.993 136.234C797.331 129.388 793.5 120.689 793.5 110.137H820.725C821.291 114.91 822.515 118.302 824.399 120.312C827.728 123.892 833.883 125.682 842.864 125.682C848.139 125.682 852.316 124.897 855.393 123.327C858.533 121.757 860.104 119.401 860.104 116.261C860.104 113.246 858.847 110.953 856.335 109.383C853.823 107.813 844.497 105.112 828.356 101.281C816.737 98.3914 808.541 94.7799 803.768 90.446C798.995 86.175 796.609 80.0196 796.609 71.98C796.609 62.4957 800.314 54.3619 807.725 47.5785C815.199 40.7322 825.687 37.3091 839.19 37.3091C852.002 37.3091 862.459 39.8529 870.56 44.9404Z" fill="black"/>
<path d="M696.279 51.3471C703.376 42.3026 715.56 37.7803 732.831 37.7803C744.073 37.7803 754.059 40.01 762.788 44.4695C771.518 48.929 775.883 57.3455 775.883 69.719V116.826C775.883 120.092 775.946 124.049 776.072 128.697C776.26 132.215 776.794 134.601 777.673 135.857C778.552 137.114 779.871 138.15 781.63 138.967V142.924H752.426C751.609 140.851 751.044 138.904 750.73 137.082C750.416 135.261 750.165 133.188 749.976 130.864C746.271 134.884 742 138.307 737.164 141.133C731.386 144.462 724.855 146.127 717.569 146.127C708.274 146.127 700.581 143.489 694.489 138.213C688.46 132.874 685.445 125.337 685.445 115.601C685.445 102.977 690.312 93.8378 700.047 88.185C705.385 85.1073 713.236 82.909 723.599 81.59L732.737 80.4594C737.698 79.8313 741.247 79.0462 743.382 78.104C747.213 76.471 749.129 73.9272 749.129 70.4727C749.129 66.2644 747.653 63.3752 744.701 61.8049C741.812 60.1719 737.541 59.3554 731.889 59.3554C725.546 59.3554 721.055 60.9256 718.417 64.0661C716.533 66.39 715.277 69.5305 714.649 73.4875H688.742C689.308 64.5058 691.82 57.1256 696.279 51.3471ZM716.251 123.515C718.763 125.588 721.84 126.624 725.483 126.624C731.261 126.624 736.568 124.929 741.404 121.537C746.302 118.145 748.846 111.958 749.034 102.977V92.9899C747.339 94.0577 745.611 94.937 743.853 95.6279C742.157 96.256 739.802 96.8527 736.788 97.418L730.758 98.5486C725.106 99.5535 721.055 100.778 718.606 102.223C714.461 104.672 712.388 108.472 712.388 113.623C712.388 118.208 713.676 121.505 716.251 123.515Z" fill="black"/>
<path d="M675.177 123.798V143.865L662.459 144.336C649.772 144.776 641.105 142.578 636.458 137.741C633.443 134.664 631.936 129.922 631.936 123.515V60.2972H617.617V41.1717H631.936V12.5305H658.502V41.1717H675.177V60.2972H658.502V114.565C658.502 118.773 659.036 121.411 660.104 122.479C661.171 123.484 664.437 123.986 669.901 123.986C670.717 123.986 671.565 123.986 672.445 123.986C673.387 123.923 674.297 123.861 675.177 123.798Z" fill="black"/>
<path d="M552.049 122.856C558.895 122.856 564.453 122.102 568.724 120.594C576.825 117.705 580.876 112.335 580.876 104.484C580.876 99.8987 578.866 96.3499 574.847 93.8375C570.827 91.388 564.516 89.221 555.911 87.3368L541.215 84.0392C526.77 80.7731 516.784 77.2244 511.258 73.393C501.9 66.9864 497.221 56.9683 497.221 43.3386C497.221 30.9023 501.743 20.5701 510.787 12.3421C519.83 4.11403 533.114 0 550.636 0C565.269 0 577.736 3.8942 588.036 11.6826C598.398 19.4082 603.831 30.6511 604.333 45.4113H576.448C575.946 37.0577 572.303 31.1222 565.52 27.6048C560.999 25.2809 555.378 24.1189 548.658 24.1189C541.184 24.1189 535.217 25.6263 530.758 28.6412C526.299 31.656 524.07 35.8643 524.07 41.2659C524.07 46.2279 526.268 49.9336 530.664 52.3832C533.49 54.0163 539.52 55.932 548.752 58.1303L572.68 63.8774C583.168 66.3897 591.082 69.7501 596.42 73.9583C604.71 80.4905 608.855 89.9433 608.855 102.317C608.855 115.004 603.988 125.556 594.253 133.973C584.582 142.327 570.89 146.503 553.179 146.503C535.092 146.503 520.867 142.389 510.504 134.161C500.141 125.87 494.96 114.502 494.96 100.056H522.657C523.536 106.399 525.263 111.142 527.838 114.282C532.548 119.998 540.619 122.856 552.049 122.856Z" fill="black"/>
<path d="M385.492 68.494C383.231 63.532 378.804 61.051 372.209 61.051C364.547 61.051 359.397 63.532 356.759 68.494C355.315 71.3204 354.593 75.5286 354.593 81.1187V142.923H327.367V40.4181H353.462V55.3982C356.791 50.0594 359.931 46.2594 362.883 43.9982C368.095 39.9784 374.847 37.9685 383.137 37.9685C390.988 37.9685 397.331 39.6958 402.167 43.1503C406.061 46.3536 409.012 50.4676 411.022 55.4924C414.539 49.4627 418.904 45.0346 424.117 42.2082C429.644 39.3817 435.798 37.9685 442.581 37.9685C447.103 37.9685 451.562 38.8478 455.959 40.6065C460.355 42.3652 464.343 45.4428 467.923 49.8395C470.812 53.4197 472.759 57.8163 473.764 63.0295C474.392 66.4841 474.706 71.5402 474.706 78.1981L474.517 142.923H447.009V77.5386C447.009 73.6444 446.381 70.4411 445.125 67.9287C442.738 63.1552 438.342 60.7684 431.936 60.7684C424.525 60.7684 419.406 63.8461 416.58 70.0014C415.136 73.2675 414.414 77.1931 414.414 81.7782V142.923H387.376V81.7782C387.376 75.6857 386.748 71.2576 385.492 68.494Z" fill="black"/>
<path d="M224.305 51.3471C231.402 42.3026 243.586 37.7803 260.857 37.7803C272.099 37.7803 282.085 40.01 290.815 44.4695C299.545 48.929 303.91 57.3455 303.91 69.719V116.826C303.91 120.092 303.972 124.049 304.098 128.697C304.286 132.215 304.82 134.601 305.699 135.857C306.579 137.114 307.898 138.15 309.656 138.967V142.924H280.452C279.636 140.851 279.07 138.904 278.756 137.082C278.442 135.261 278.191 133.188 278.003 130.864C274.297 134.884 270.027 138.307 265.191 141.133C259.413 144.462 252.881 146.127 245.596 146.127C236.301 146.127 228.607 143.489 222.515 138.213C216.486 132.874 213.471 125.337 213.471 115.601C213.471 102.977 218.339 93.8378 228.073 88.185C233.412 85.1073 241.262 82.909 251.625 81.59L260.763 80.4594C265.725 79.8313 269.273 79.0462 271.408 78.104C275.239 76.471 277.155 73.9272 277.155 70.4727C277.155 66.2644 275.679 63.3752 272.727 61.8049C269.838 60.1719 265.568 59.3554 259.915 59.3554C253.572 59.3554 249.081 60.9256 246.444 64.0661C244.56 66.39 243.303 69.5305 242.675 73.4875H216.769C217.334 64.5058 219.846 57.1256 224.305 51.3471ZM244.277 123.515C246.789 125.588 249.867 126.624 253.509 126.624C259.287 126.624 264.594 124.929 269.43 121.537C274.329 118.145 276.872 111.958 277.061 102.977V92.9899C275.365 94.0577 273.638 94.937 271.879 95.6279C270.184 96.256 267.829 96.8527 264.814 97.418L258.785 98.5486C253.132 99.5535 249.081 100.778 246.632 102.223C242.487 104.672 240.414 108.472 240.414 113.623C240.414 118.208 241.702 121.505 244.277 123.515Z" fill="black"/>
<path d="M200.942 112.775C200.251 118.867 197.08 125.054 191.427 131.335C182.635 141.322 170.325 146.315 154.498 146.315C141.435 146.315 129.91 142.107 119.925 133.69C109.939 125.274 104.946 111.581 104.946 92.613C104.946 74.8379 109.436 61.2082 118.417 51.7239C127.461 42.2397 139.174 37.4976 153.556 37.4976C162.098 37.4976 169.791 39.0992 176.637 42.3025C183.482 45.5058 189.135 50.562 193.594 57.471C197.613 63.5635 200.22 70.6296 201.413 78.6693C202.104 83.38 202.387 90.1634 202.261 99.0196H131.983C132.36 109.32 135.594 116.543 141.686 120.689C145.392 123.264 149.851 124.552 155.064 124.552C160.59 124.552 165.081 122.981 168.535 119.841C170.419 118.145 172.084 115.79 173.528 112.775H200.942ZM174.376 81.3073C173.936 74.2098 171.769 68.8395 167.876 65.1966C164.045 61.4908 159.271 59.6379 153.556 59.6379C147.339 59.6379 142.503 61.585 139.049 65.4792C135.657 69.3734 133.522 74.6494 132.642 81.3073H174.376Z" fill="black"/>
<path d="M112.482 4.05127V28.6412H70.9374V142.923H41.7334V28.6412H0V4.05127H112.482Z" fill="black"/>
</svg>
